<svg xmlns="http://www.w3.org/2000/svg" xmlns:xlink="http://www.w3.org/1999/xlink" width="519.65" height="118.33" viewBox="0 0 1473.03 335.41"><defs><clipPath id="a1" transform="translate(0 0)"><rect width="335.42" height="335.42" /></clipPath><clipPath id="b1" transform="translate(0 0)"><rect x="390.14" y="172.75" width="1082.88" height="67.06"/></clipPath><clipPath id="c1" transform="translate(0 0)"><rect x="390.14" y="84.23" width="488.86" height="56.12" /></clipPath></defs><g clip-path="url(#a1)"><path style="fill: var(--primaryColor);" d="M74.67,165.94c0-3.63,3-5.83,7.73-5.83a16,16,0,0,1,10.76,4.24l4.55-5.61a22,22,0,0,0-15.31-6.29c-9.63,0-16.6,6.07-16.6,14,0,7.28,5.08,11.15,10,13.19l6.75,3c4.55,1.89,7.73,3.18,7.73,7.28,0,3.86-3.11,6.36-8.64,6.36-4.63,0-9.4-2.27-13-5.61l-5.08,6a25.47,25.47,0,0,0,17.81,7.28c11.14,0,17.82-6.67,17.82-14.71,0-7.2-4.1-10.92-10-13.42l-6.67-2.8c-4.09-1.67-7.88-3.11-7.88-7m59.5,12c0,12.21-5.76,17.89-15.76,17.89h-3.8V160.49h3.8c10,0,15.76,5.3,15.76,17.43m9,0c0-16.37-9-24.56-24.18-24.56H105.82v49.58h13.65c14.7,0,23.72-8.57,23.72-25m36.87-8.75,7.53-10.23a19.84,19.84,0,0,0-14.09-5.4c-13.7,0-25.86,9.26-25.86,25.28S158.26,204.1,172,204.1a25.29,25.29,0,0,0,16.21-6l-6.56-10.42c-2.13,1.54-4.63,3.08-7.72,3.08-5.21,0-9.26-4.63-9.26-12s3.66-12,9.84-12a8.52,8.52,0,0,1,5.59,2.32m37.44,4.25H203.22c1-5.31,4.05-7.34,7.72-7.34,5,0,6.56,3.28,6.56,7.34m13.41,10a30.16,30.16,0,0,0,.67-6.56c0-12.93-6.75-23.35-21-23.35-11.77,0-23.16,9.65-23.16,25.28,0,16,10.81,25.28,24.9,25.28a32.42,32.42,0,0,0,17.55-5.6l-5.4-9.84a19.78,19.78,0,0,1-9.84,2.89c-5.4,0-9.65-1.93-11.19-8.1Zm36.75-5.21c0,9.26-3.28,12.35-7.14,12.35a8.84,8.84,0,0,1-6.17-2.32V170.52c2.12-2.51,4-3.47,6.56-3.47,4.44,0,6.75,3.28,6.75,11.19m17-.19c0-14.86-7.34-24.51-18.72-24.51-4.83,0-9.55,2.32-13.12,5.6h-.39l-1.16-4.44h-13.5v65.22h16.59V206.6l-.58-7.33a15.12,15.12,0,0,0,10.81,4.83c10.22,0,20.07-9.46,20.07-26m-37.94,85.31c-9.93,11.37-21.36,22.46-35.1,29.1a35.49,35.49,0,0,1-14.54,4c-5.22.12-10.4-2.5-14.74-5.24-10.09-6.39-17.08-16.47-23.8-26.09-3.8-5.43-8.48-11.25-15.11-13.2-6.26-1.85-12.74.3-18.57,2.62-8.37,3.34-17.6,5.21-26.61,3.93a33.06,33.06,0,0,1-17-7.47C73.89,244.65,70,235.4,67.54,226.25a340.47,340.47,0,0,1-8.33-43.17q-.81-6.11-1.37-12.22a232.1,232.1,0,0,1-.8-31.53,167,167,0,0,1,3-25.31,126.79,126.79,0,0,1,5.55-19.5,97.18,97.18,0,0,1,6.73-14.26,71.56,71.56,0,0,1,9-12.37c1-1.08,2-2.12,3-3.15,2.72-2.67,5.57-5.2,8.48-7.65a41.4,41.4,0,0,1,8-5.47,40.59,40.59,0,0,1,9.26-3.31,37.53,37.53,0,0,1,5.48-.81A41.66,41.66,0,0,1,131,49.33a58,58,0,0,1,13,5.94c14,8.58,24.45,23.8,38.07,32.26,7.45,4.62,15.87,7.22,26.36,5.59,11.22-1.73,22.61-3,33.87-.9,15.55,3,29.44,11.86,37.38,25.7a37.57,37.57,0,0,1,3.85,8.64c28.28,78.27-36.83,136.8-36.83,136.8m88.71-95.65a167.71,167.71,0,1,0-167.71,167.7,167.71,167.71,0,0,0,167.71-167.7" transform="translate(0 0)" /></g><g clip-path="url(#b1)"><path style="fill: var(--primaryColor);" d="M1450.77,203.72c.73-4.84,3.66-7.11,7-7.11,4.32,0,6.08,2.93,6.08,7.11Zm-10.32,3.73c0,12,8,19,18.37,19a23.78,23.78,0,0,0,12.89-4.1l-3.59-6.52a14.61,14.61,0,0,1-7.83,2.42c-4.83,0-8.49-2.42-9.45-7.91h21.75a21.33,21.33,0,0,0,.44-4.54c0-9.88-5.13-17.43-15.45-17.43-8.71,0-17.13,7.25-17.13,19m-60.62,18.16h10.76V201.08c2.27-2.34,4.39-3.51,6.15-3.51,3.07,0,4.46,1.61,4.46,6.88v21.16H1412V201.08c2.34-2.34,4.39-3.51,6.22-3.51,3.08,0,4.47,1.61,4.47,6.88v21.16h10.76V203.06c0-9.08-3.52-14.65-11.35-14.65-4.83,0-8.2,2.79-11.42,6.08-1.83-3.88-4.91-6.08-10-6.08-4.76,0-8,2.57-11,5.57h-.3l-.73-4.69h-8.78Zm-62.75,0h10.77V201.08c2.26-2.34,4.39-3.51,6.15-3.51,3.07,0,4.46,1.61,4.46,6.88v21.16h10.76V201.08c2.35-2.34,4.4-3.51,6.23-3.51,3.07,0,4.46,1.61,4.46,6.88v21.16h10.76V203.06c0-9.08-3.51-14.65-11.34-14.65-4.84,0-8.2,2.79-11.42,6.08-1.83-3.88-4.91-6.08-10-6.08-4.76,0-8,2.57-11,5.57h-.29l-.73-4.69h-8.79Zm-43.85-18.16c0,11.86,5.86,19,14.86,19,3.51,0,7.1-1.91,9.66-4.47h.3l.73,3.59h8.79V189.29h-8.42l-.88,3.59h-.3c-2.85-3.07-5.78-4.47-9.44-4.47-7.61,0-15.3,7.18-15.3,19m11-.15c0-6.88,3.08-10.1,6.52-10.1a8.61,8.61,0,0,1,6,2.34v14.87c-1.75,2.41-3.58,3.29-5.93,3.29-4.17,0-6.59-3.22-6.59-10.4m-37.56,18.31h10.77V204.52c1.9-4.9,5.27-6.66,8-6.66a13.8,13.8,0,0,1,4,.58l1.76-9.29a10.42,10.42,0,0,0-4.32-.74c-3.74,0-7.69,2.35-10.32,7.25h-.3l-.73-6.37h-8.79ZM1220.15,216c-4.17,0-6.74-3.37-6.74-9.38s3.08-9.44,6.67-9.44a8.63,8.63,0,0,1,6,2.34v13c-1.9,2.57-3.59,3.45-5.93,3.45m-11.79,12.66-3.51,7.1a26.65,26.65,0,0,0,13.54,4c11.79,0,18.45-5.12,18.45-14.57v-36h-8.64l-.8,3.37h-.3a11.72,11.72,0,0,0-9.29-4.25c-7.62,0-15.31,7.25-15.31,18.38,0,10.47,5.86,17.86,14.87,17.86a13.58,13.58,0,0,0,9-3.66l-.29,4.54c-.37,3.44-2.34,5.86-7.69,5.86a21.25,21.25,0,0,1-10-2.71m-36-21.23c0-6.3,2.2-10.32,6.66-10.32s6.67,4,6.67,10.32-2.27,10.32-6.67,10.32-6.66-4-6.66-10.32m-11.06,0c0,12.08,8.5,19,17.72,19s17.65-7,17.65-19-8.5-19-17.65-19-17.72,7-17.72,19M1135,225.61h10.76V204.52c1.91-4.9,5.28-6.66,8-6.66a13.82,13.82,0,0,1,4,.58l1.75-9.29a10.33,10.33,0,0,0-4.31-.74c-3.74,0-7.69,2.35-10.33,7.25h-.29l-.73-6.37H1135Zm-32.65-24.75V186.44h5.93c5.71,0,8.78,1.83,8.78,6.81s-2.85,7.61-8.78,7.61Zm-10.84,24.75h10.84V209.43h6.59c10.1,0,18.67-5,18.67-16.18,0-11.57-8.28-15.38-18.67-15.38h-17.43Zm-51.69-4.18a23.41,23.41,0,0,0,13.91,5.06c9.74,0,14.94-5.13,14.94-11.72s-5.2-9.22-9.81-10.91c-3.73-1.39-7.1-2.27-7.1-4.61,0-1.83,1.32-2.86,4.1-2.86,2.56,0,5.05,1.18,7.69,3.08l4.83-6.44a20.85,20.85,0,0,0-12.81-4.62c-8.42,0-13.92,4.62-13.92,11.35,0,6,5.2,9,9.6,10.69,3.73,1.47,7.39,2.56,7.39,5,0,1.9-1.39,3.08-4.61,3.08s-6.08-1.32-9.37-3.81Zm-32.42,0a23.39,23.39,0,0,0,13.91,5.06c9.73,0,14.93-5.13,14.93-11.72s-5.2-9.22-9.81-10.91c-3.73-1.39-7.1-2.27-7.1-4.61,0-1.83,1.32-2.86,4.1-2.86,2.56,0,5.05,1.18,7.69,3.08L1036,193a20.85,20.85,0,0,0-12.81-4.62c-8.42,0-13.91,4.62-13.91,11.35,0,6,5.19,9,9.59,10.69,3.73,1.47,7.39,2.56,7.39,5,0,1.9-1.39,3.08-4.61,3.08s-6.08-1.32-9.37-3.81Zm-26.51-17.71c.73-4.84,3.66-7.11,7-7.11,4.32,0,6.08,2.93,6.08,7.11Zm-10.32,3.73c0,12,8,19,18.38,19a23.75,23.75,0,0,0,12.88-4.1l-3.59-6.52a14.61,14.61,0,0,1-7.83,2.42c-4.83,0-8.49-2.42-9.44-7.91h21.74a21.33,21.33,0,0,0,.44-4.54c0-9.88-5.13-17.43-15.45-17.43-8.71,0-17.13,7.25-17.13,19m-39.76,18.16h10.77V201.08c2.34-2.27,4-3.51,6.73-3.51,3.08,0,4.47,1.61,4.47,6.88v21.16h10.76V203.06c0-9.08-3.37-14.65-11.27-14.65-4.91,0-8.57,2.57-11.65,5.5h-.29l-.73-4.62h-8.79Zm-29.72-21.89c.73-4.84,3.66-7.11,7-7.11,4.32,0,6.07,2.93,6.07,7.11Zm-10.32,3.73c0,12,8,19,18.37,19a23.81,23.81,0,0,0,12.89-4.1l-3.59-6.52a14.61,14.61,0,0,1-7.83,2.42c-4.83,0-8.5-2.42-9.45-7.91h21.75a21.33,21.33,0,0,0,.44-4.54c0-9.88-5.13-17.43-15.45-17.43-8.71,0-17.13,7.25-17.13,19m-27.24,18.16H876l11.86-36.32H877.52l-4.76,17.13c-1,3.59-1.91,7.4-2.79,11.21h-.29c-.95-3.81-1.9-7.62-2.85-11.21l-4.69-17.13H851.3Zm-28.55,0h10.76V189.29H835ZM840.32,184c3.66,0,6.23-2.34,6.23-5.64s-2.57-5.56-6.23-5.56-6.22,2.27-6.22,5.56,2.64,5.64,6.22,5.64M808.4,212.43c0,8.42,3.52,14.06,12.52,14.06a26.23,26.23,0,0,0,8.05-1.32l-1.68-7.84a10.18,10.18,0,0,1-3.44.74c-2.86,0-4.69-1.69-4.69-5.79V197.71h8.72v-8.42h-8.72v-9.66h-8.93L809,189.29l-5.57.44v8h5Zm-37.78-5c0,12.08,7.84,19,17.94,19A18.87,18.87,0,0,0,800.64,222l-4.32-6.81a10.47,10.47,0,0,1-6.51,2.63c-4.69,0-8.13-4-8.13-10.32s3.29-10.32,8.49-10.32a7.75,7.75,0,0,1,5.05,2.12l4.91-6.66a14.67,14.67,0,0,0-10.62-4.18c-10,0-18.89,7-18.89,19M743,203.72c.73-4.84,3.66-7.11,7-7.11,4.32,0,6.07,2.93,6.07,7.11Zm-10.33,3.73c0,12,8,19,18.38,19a23.81,23.81,0,0,0,12.89-4.1l-3.59-6.52a14.67,14.67,0,0,1-7.84,2.42c-4.83,0-8.49-2.42-9.44-7.91h21.74a21.33,21.33,0,0,0,.44-4.54c0-9.88-5.12-17.43-15.44-17.43-8.72,0-17.14,7.25-17.14,19m.37-32.73a21.5,21.5,0,0,0-7.25-1.31c-9.74,0-13.32,6.29-13.32,14v1.9H700.12v-1.68c0-3.44,1.83-5,4.32-5a9.41,9.41,0,0,1,4.25.81l2-8a21.84,21.84,0,0,0-7.54-1.32c-9.89,0-13.77,6.07-13.77,13.54v1.69l-4.83.36v8h4.83v27.9h10.76v-27.9H712.5v27.9h10.76v-27.9h6.52v-8.42h-6.52V187.1c0-3.74,1.54-5.2,4.17-5.2a11.69,11.69,0,0,1,3.74.73Zm-84.71,50.89H679v-9.08H659.2v-11h16.25v-9H659.2V187h19.11v-9.08H648.36Zm-37-11.28c0,7.32,2.49,12.16,9.88,12.16a14.07,14.07,0,0,0,5.42-.88l-1.32-8a4.68,4.68,0,0,1-1.31.14c-.88,0-1.91-.73-1.91-3V174.28H611.39Zm-43.86-6.88c0,11.86,5.86,19,14.87,19,3.51,0,7.1-1.91,9.66-4.47h.29l.74,3.59h8.78V189.29h-8.42l-.88,3.59h-.29c-2.85-3.07-5.78-4.47-9.44-4.47-7.62,0-15.31,7.18-15.31,19m11.06-.15c0-6.88,3.08-10.1,6.52-10.1a8.63,8.63,0,0,1,6,2.34v14.87c-1.76,2.41-3.59,3.29-5.93,3.29-4.17,0-6.59-3.22-6.59-10.4m-43.42.15c0,12.08,7.84,19,17.94,19A18.85,18.85,0,0,0,565.19,222l-4.32-6.81a10.45,10.45,0,0,1-6.51,2.63c-4.69,0-8.13-4-8.13-10.32s3.29-10.32,8.49-10.32a7.75,7.75,0,0,1,5,2.12l4.91-6.66a14.67,14.67,0,0,0-10.62-4.18c-10,0-18.89,7-18.89,19m-18.08,18.16h10.76V189.29H517.09ZM522.44,184c3.66,0,6.22-2.34,6.22-5.64s-2.56-5.56-6.22-5.56-6.23,2.27-6.23,5.56,2.64,5.64,6.23,5.64m-47.23,41.66H486V201.08c2.34-2.27,4-3.51,6.73-3.51,3.08,0,4.47,1.61,4.47,6.88v21.16h10.76V203.06c0-9.08-3.37-14.65-11.28-14.65-4.9,0-8.56,2.57-11.64,5.5h-.29l-.73-4.62h-8.79Zm-20.2,0h10.76V189.29H455ZM460.36,184c3.66,0,6.22-2.34,6.22-5.64s-2.56-5.56-6.22-5.56-6.23,2.27-6.23,5.56,2.64,5.64,6.23,5.64m-26.29,30.38c0,7.32,2.49,12.16,9.89,12.16a14,14,0,0,0,5.41-.88l-1.31-8a4.74,4.74,0,0,1-1.32.14c-.88,0-1.91-.73-1.91-3V174.28H434.07ZM390.14,202c0,16,10.11,24.46,22.48,24.46a19.51,19.51,0,0,0,15.16-7l-5.93-6.52a11.73,11.73,0,0,1-9.08,4.25c-7,0-11.57-5.71-11.57-15.52,0-9.59,5.2-15.38,11.86-15.38,3.37,0,5.64,1.39,8.05,3.59l5.93-6.66A20,20,0,0,0,412.91,177c-12.3,0-22.77,9.23-22.77,25" transform="translate(0 0)" /></g><g clip-path="url(#c1)"><path style="fill: var(--primaryColor);" d="M868.61,131.83c0,5.5,1.94,8.52,6.75,8.52a8.51,8.51,0,0,0,3.64-.62l-.85-4.8a5.54,5.54,0,0,1-1.4.15c-.93,0-1.78-.77-1.78-2.79V84.23h-6.36Zm-45.73-11.17c0,12.56,6.13,19.69,15.58,19.69,4.42,0,8.45-2.48,11.4-5.35h.23l.54,4.42h5.27V101.75h-5.19l-.54,3.65H850c-3.41-3-6.51-4.58-10.7-4.58-8.6,0-16.43,7.6-16.43,19.84m6.59-.07c0-8.61,4.81-14.42,10.85-14.42,3.1,0,6,1.09,9.15,4v19.69c-3.1,3.49-6.12,5.19-9.61,5.19-6.59,0-10.39-5.42-10.39-14.41m-28.21,7.21c0,7.44,2.71,12.55,10.77,12.55a23.53,23.53,0,0,0,7-1.39l-1.24-4.81a13.58,13.58,0,0,1-4.27,1c-4.34,0-5.81-2.64-5.81-7.29V107h10.15v-5.2H807.69V91.21h-5.35l-.77,10.54-5.89.39V107h5.58Zm-43.49,11.62h6.36V112.14c3.8-3.8,6.43-5.81,10.31-5.81,5,0,7.13,3,7.13,10.07v23h6.35V115.55c0-9.61-3.56-14.73-11.47-14.73-5.19,0-9.07,2.79-12.63,6.36h-.23l-.55-5.43h-5.27Zm-35-21.62c.77-7.6,5.58-11.94,10.85-11.94,5.89,0,9.3,4.26,9.3,11.94Zm-6.2,2.86c0,12.33,8,19.69,18.06,19.69a22.47,22.47,0,0,0,12.4-3.87l-2.25-4.19a17,17,0,0,1-9.38,3c-7.21,0-12.09-5.12-12.55-13.26h25.42a23.14,23.14,0,0,0,.23-3.49c0-10.77-5.42-17.67-15-17.67-8.6,0-16.89,7.52-16.89,19.84m-37.75,13.49V93.85h5.74c11.93,0,17.82,7.13,17.82,19.92s-5.89,20.38-17.82,20.38Zm-6.51,5.27h13c15.35,0,23.72-9.45,23.72-25.65s-8.37-25.19-24-25.19H672.28Zm-58.21,0h6.35V112.14c3.8-3.8,6.44-5.81,10.31-5.81,5,0,7.13,3,7.13,10.07v23h6.36V115.55c0-9.61-3.57-14.73-11.47-14.73-5.2,0-9,2.79-12.56,6.2l.23-7.75v-15h-6.35Zm-36.66-4.26a22.68,22.68,0,0,0,14,5.19c8.92,0,13.8-5.11,13.8-11.24,0-7.13-6-9.38-11.47-11.39-4.26-1.63-8.37-3-8.37-6.51,0-2.87,2.17-5.43,6.9-5.43,3.33,0,6,1.4,8.6,3.34l3-4a18.75,18.75,0,0,0-11.7-4.27c-8.14,0-12.94,4.65-12.94,10.7,0,6.35,5.89,8.91,11.23,10.85,4.11,1.55,8.61,3.26,8.61,7.13,0,3.26-2.48,5.89-7.44,5.89-4.5,0-7.83-1.86-11.09-4.49Zm-14.88,4.26h6.35V101.75h-6.35ZM565.78,94a4.12,4.12,0,1,0,0-8.22,4.12,4.12,0,1,0,0,8.22m-28.37,33.8c0,7.44,2.72,12.55,10.78,12.55a23.47,23.47,0,0,0,7-1.39l-1.24-4.81a13.52,13.52,0,0,1-4.26,1c-4.34,0-5.81-2.64-5.81-7.29V107H554v-5.2H543.85V91.21H538.5l-.78,10.54-5.89.39V107h5.58Zm-26.19,0c0,7.44,2.71,12.55,10.77,12.55a23.53,23.53,0,0,0,7-1.39l-1.24-4.81a13.58,13.58,0,0,1-4.27,1c-4.34,0-5.81-2.64-5.81-7.29V107H527.8v-5.2H517.65V91.21H512.3l-.77,10.54-5.9.39V107h5.59Zm-39.3-7.14c0-8.68,4.42-14.57,10.85-14.57s10.85,5.89,10.85,14.57-4.34,14.42-10.85,14.42-10.85-5.81-10.85-14.42m-6.59,0c0,12.48,8.22,19.69,17.44,19.69s17.44-7.21,17.44-19.69c0-12.63-8.22-19.84-17.44-19.84s-17.44,7.21-17.44,19.84m-33.72,0c0,12.48,7.68,19.69,17.67,19.69a18.66,18.66,0,0,0,12.25-4.88l-2.87-4.19a13.39,13.39,0,0,1-8.83,3.8c-6.9,0-11.63-5.81-11.63-14.42s5-14.57,11.78-14.57c3,0,5.35,1.4,7.6,3.34l3.18-4.11a15.52,15.52,0,0,0-11-4.5c-9.69,0-18.14,7.21-18.14,19.84m-41.47,12.17a24.46,24.46,0,0,0,17.75,7.52c10.7,0,17.37-6.43,17.37-14.49,0-7.52-4.58-11-10.47-13.57l-7.28-3.1c-4-1.7-8.45-3.56-8.45-8.45,0-4.57,3.8-7.44,9.53-7.44a16.34,16.34,0,0,1,11.55,4.81l3.41-4.19a20.76,20.76,0,0,0-15-6.27c-9.22,0-16,5.73-16,13.48,0,7.44,5.58,11.09,10.31,13.1l7.28,3.18c4.81,2.17,8.53,3.8,8.53,9,0,5-4,8.29-10.62,8.29a19.75,19.75,0,0,1-14-6.35Z" transform="translate(0 0)" /></g></svg>