<svg xmlns="http://www.w3.org/2000/svg" xmlns:xlink="http://www.w3.org/1999/xlink" width="522.11mm" height="192.62mm" viewBox="0 0 1480 546"><defs><clipPath id="a" transform="translate(0)"><rect x="390.14" y="177.04" width="488.86" height="56.12" fill="none"/></clipPath><clipPath id="b" transform="translate(0)"><rect y="92.81" width="334.71" height="335.42" fill="none"/></clipPath></defs><line x1="1480" x2="1480" y2="546" fill="none"/><g clip-path="url(#a)"><path d="M868.61,224.64c0,5.5,1.94,8.52,6.75,8.52a8.51,8.51,0,0,0,3.64-.62l-.85-4.8a5.54,5.54,0,0,1-1.4.15c-.93,0-1.78-.77-1.78-2.79V177h-6.36Zm-45.73-11.17c0,12.56,6.13,19.69,15.58,19.69,4.42,0,8.45-2.48,11.4-5.35h.23l.54,4.42h5.27V194.56h-5.19l-.54,3.64H850c-3.41-3-6.51-4.57-10.7-4.57-8.6,0-16.43,7.6-16.43,19.84m6.59-.07c0-8.61,4.81-14.42,10.85-14.42,3.1,0,6,1.08,9.15,4v19.69c-3.1,3.49-6.12,5.19-9.61,5.19-6.59,0-10.39-5.42-10.39-14.41m-28.21,7.2c0,7.45,2.71,12.56,10.77,12.56a23.53,23.53,0,0,0,7-1.39L817.77,227a13.58,13.58,0,0,1-4.27,1c-4.34,0-5.81-2.64-5.81-7.29V199.75h10.15v-5.19H807.69V184h-5.35l-.77,10.54-5.89.39v4.8h5.58Zm-43.49,11.63h6.36V205c3.8-3.8,6.43-5.82,10.31-5.82,5,0,7.13,3,7.13,10.08v23h6.35V208.36c0-9.61-3.56-14.73-11.47-14.73-5.19,0-9.07,2.79-12.63,6.36h-.23l-.55-5.43h-5.27Zm-35-21.62c.77-7.6,5.58-11.94,10.85-11.94,5.89,0,9.3,4.26,9.3,11.94Zm-6.2,2.86c0,12.33,8,19.69,18.06,19.69a22.47,22.47,0,0,0,12.4-3.87l-2.25-4.19a17,17,0,0,1-9.38,3c-7.21,0-12.09-5.12-12.55-13.26h25.42a23.14,23.14,0,0,0,.23-3.49c0-10.77-5.42-17.67-15-17.67-8.6,0-16.89,7.52-16.89,19.84M678.79,227v-40.3h5.74c11.93,0,17.82,7.13,17.82,19.92S696.46,227,684.53,227Zm-6.51,5.27h13c15.35,0,23.72-9.45,23.72-25.65s-8.37-25.2-24-25.2H672.28Zm-58.21,0h6.35V205c3.8-3.8,6.44-5.82,10.31-5.82,5,0,7.13,3,7.13,10.08v23h6.36V208.36c0-9.61-3.57-14.73-11.47-14.73-5.2,0-9,2.79-12.56,6.2l.23-7.75V177h-6.35ZM577.41,228a22.68,22.68,0,0,0,14,5.19c8.92,0,13.8-5.11,13.8-11.24,0-7.13-6-9.38-11.47-11.39-4.26-1.63-8.37-3-8.37-6.51,0-2.87,2.17-5.43,6.9-5.43,3.33,0,6,1.4,8.6,3.33l3-4a18.8,18.8,0,0,0-11.7-4.26c-8.14,0-12.94,4.65-12.94,10.7,0,6.35,5.89,8.91,11.23,10.85,4.11,1.55,8.61,3.25,8.61,7.13,0,3.26-2.48,5.89-7.44,5.89-4.5,0-7.83-1.86-11.09-4.49Zm-14.88,4.26h6.35V194.56h-6.35Zm3.25-45.42a4.17,4.17,0,0,0,4.42-4.11,4.43,4.43,0,1,0-4.42,4.11M537.41,220.6c0,7.45,2.72,12.56,10.78,12.56a23.47,23.47,0,0,0,7-1.39L553.92,227a13.52,13.52,0,0,1-4.26,1c-4.34,0-5.81-2.64-5.81-7.29V199.75H554v-5.19H543.85V184H538.5l-.78,10.54-5.89.39v4.8h5.58Zm-26.19,0c0,7.45,2.71,12.56,10.77,12.56a23.53,23.53,0,0,0,7-1.39L527.73,227a13.58,13.58,0,0,1-4.27,1c-4.34,0-5.81-2.64-5.81-7.29V199.75H527.8v-5.19H517.65V184H512.3l-.77,10.54-5.9.39v4.8h5.59Zm-39.3-7.13c0-8.68,4.42-14.57,10.85-14.57s10.85,5.89,10.85,14.57-4.34,14.42-10.85,14.42-10.85-5.81-10.85-14.42m-6.59,0c0,12.48,8.22,19.69,17.44,19.69s17.44-7.21,17.44-19.69c0-12.63-8.22-19.84-17.44-19.84s-17.44,7.21-17.44,19.84m-33.72,0c0,12.48,7.68,19.69,17.67,19.69a18.66,18.66,0,0,0,12.25-4.88l-2.87-4.19a13.39,13.39,0,0,1-8.83,3.8c-6.9,0-11.63-5.81-11.63-14.42s5-14.57,11.78-14.57c3,0,5.35,1.4,7.6,3.33l3.18-4.1a15.52,15.52,0,0,0-11-4.5c-9.69,0-18.14,7.21-18.14,19.84m-41.47,12.17a24.46,24.46,0,0,0,17.75,7.52c10.7,0,17.37-6.43,17.37-14.49,0-7.52-4.58-11-10.47-13.57l-7.28-3.1c-4-1.7-8.45-3.56-8.45-8.45,0-4.57,3.8-7.44,9.53-7.44a16.34,16.34,0,0,1,11.55,4.81l3.41-4.19a20.77,20.77,0,0,0-15-6.28c-9.22,0-16,5.74-16,13.49,0,7.44,5.58,11.09,10.31,13.1l7.28,3.18c4.81,2.17,8.53,3.8,8.53,9,0,5-4,8.29-10.62,8.29a19.75,19.75,0,0,1-14-6.35Z" transform="translate(0)" fill="#004380"/></g><path d="M1438.13,317.36h10.46v-8.93l4.61-5.19,8.19,14.12H1473L1459.35,296l12.73-14.92h-11.71l-11.49,14.41h-.29V266.07h-10.46Zm-29.12,0h10.75V296.29c1.91-4.91,5.27-6.66,8-6.66a13.8,13.8,0,0,1,4,.58l1.76-9.29a10.45,10.45,0,0,0-4.32-.73c-3.73,0-7.68,2.34-10.32,7.24h-.29l-.73-6.36H1409Zm-31.68-18.15c0-6.29,2.19-10.31,6.66-10.31s6.65,4,6.65,10.31-2.26,10.32-6.65,10.32-6.66-4-6.66-10.32m-11,0c0,12.07,8.49,19,17.71,19s17.63-7,17.63-19-8.49-19-17.63-19-17.71,6.95-17.71,19m-48,18.15h12.29l3.22-14.49c.66-3.36,1.17-6.73,1.83-10.61h.29c.66,3.88,1.25,7.25,2,10.61l3.29,14.49h12.58l8.71-36.29h-10l-3.44,16.83c-.66,3.58-1,7.09-1.68,10.75h-.29c-.73-3.66-1.39-7.17-2.27-10.75l-4.1-16.83h-9.29l-4,16.83c-.88,3.43-1.47,7.09-2.13,10.75H1325c-.58-3.66-1-7.17-1.61-10.75l-3.51-16.83h-10.68Zm-32.63-13.17c0,8.41,3.51,14.05,12.51,14.05a26.29,26.29,0,0,0,8-1.32l-1.68-7.83a10.23,10.23,0,0,1-3.44.73c-2.86,0-4.69-1.68-4.69-5.78V289.48h8.71v-8.41h-8.71v-9.66h-8.92l-1.25,9.66-5.56.44v8h5Zm-29.85-8.71c.73-4.83,3.66-7.1,7-7.1,4.32,0,6.07,2.93,6.07,7.1Zm-10.32,3.73c0,12,8,19,18.37,19a23.74,23.74,0,0,0,12.87-4.1l-3.58-6.51a14.62,14.62,0,0,1-7.83,2.41c-4.83,0-8.49-2.41-9.44-7.9h21.73a21.25,21.25,0,0,0,.44-4.54c0-9.87-5.12-17.41-15.44-17.41-8.7,0-17.12,7.24-17.12,19m-45.65,18.15h10.31v-16.9c0-5.64-.87-12-1.39-17.27h.3l4.68,10.39,12.44,23.78h11V269.65H1227v16.83c0,5.64.88,12.37,1.39,17.42h-.29l-4.76-10.54-12.43-23.71h-11.05Zm-57.8,0h10.75V292.85c2.34-2.27,4-3.51,6.73-3.51,3.08,0,4.47,1.61,4.47,6.87v21.15h10.75V294.82c0-9.07-3.36-14.63-11.26-14.63-4.91,0-8.49,2.56-11.2,5l.51-6.52V266.07H1142Zm-36.29-18.15c0,12.07,7.83,19,17.92,19a18.87,18.87,0,0,0,12.08-4.54l-4.32-6.81a10.48,10.48,0,0,1-6.51,2.64c-4.68,0-8.12-4-8.12-10.32s3.29-10.31,8.48-10.31a7.7,7.7,0,0,1,5,2.12l4.9-6.66a14.62,14.62,0,0,0-10.6-4.17c-10,0-18.88,6.95-18.88,19m-26.27,18.15h10.76V296.29c1.9-4.91,5.27-6.66,8-6.66a13.7,13.7,0,0,1,4,.58l1.76-9.29a10.41,10.41,0,0,0-4.32-.73c-3.73,0-7.68,2.34-10.31,7.24h-.3l-.73-6.36h-8.78Zm-43.82-18.15c0,11.86,5.85,19,14.85,19,3.51,0,7.1-1.91,9.66-4.47h.29l.73,3.59H1070V281.07h-8.41l-.88,3.58h-.29c-2.86-3.07-5.78-4.46-9.44-4.46-7.61,0-15.29,7.17-15.29,19m11-.14c0-6.88,3.07-10.1,6.51-10.1a8.6,8.6,0,0,1,6,2.34v14.85c-1.76,2.42-3.59,3.3-5.93,3.3-4.17,0-6.58-3.22-6.58-10.39m-38.85-3.59c.73-4.83,3.65-7.1,7-7.1,4.32,0,6.07,2.93,6.07,7.1Zm-10.32,3.73c0,12,8,19,18.36,19a23.75,23.75,0,0,0,12.88-4.1l-3.58-6.51a14.65,14.65,0,0,1-7.83,2.41c-4.83,0-8.49-2.41-9.44-7.9h21.73a21.25,21.25,0,0,0,.44-4.54c0-9.87-5.12-17.41-15.44-17.41-8.71,0-17.12,7.24-17.12,19m-33.51,14a23.44,23.44,0,0,0,13.9,5.05c9.73,0,14.93-5.13,14.93-11.71s-5.2-9.22-9.81-10.9c-3.73-1.39-7.09-2.27-7.09-4.61,0-1.83,1.31-2.86,4.09-2.86,2.56,0,5.05,1.18,7.69,3.08l4.83-6.44a20.91,20.91,0,0,0-12.81-4.61c-8.41,0-13.9,4.61-13.9,11.34,0,6,5.19,9,9.58,10.68,3.74,1.47,7.39,2.56,7.39,5,0,1.9-1.39,3.07-4.61,3.07s-6.07-1.32-9.36-3.8Zm-26.48-17.71c.73-4.83,3.65-7.1,7-7.1,4.32,0,6.07,2.93,6.07,7.1Zm-10.32,3.73c0,12,8,19,18.36,19a23.75,23.75,0,0,0,12.88-4.1l-3.58-6.51a14.65,14.65,0,0,1-7.83,2.41c-4.83,0-8.49-2.41-9.44-7.9h21.73a21.25,21.25,0,0,0,.44-4.54c0-9.87-5.12-17.41-15.44-17.41-8.71,0-17.12,7.24-17.12,19m-3.43,18.15L913,298.26c5.05-2.27,8.49-6.73,8.49-13.75,0-11.34-8.34-14.86-18.44-14.86H885.9v47.71h10.83v-17.2h5.85l9.14,17.2Zm-27.07-39.15h5.48c5.64,0,8.71,1.61,8.71,6.3s-3.07,7.09-8.71,7.09h-5.48ZM837.1,299.07c0-6.88,3.07-10.1,6.51-10.1a8.58,8.58,0,0,1,6,2.34v14.85c-1.76,2.42-3.59,3.3-5.93,3.3-4.17,0-6.58-3.22-6.58-10.39m-11.05.14c0,11.86,5.85,19,14.85,19,3.51,0,7.1-1.91,9.66-4.47h.29l.73,3.59h8.78V266.07H849.61v12.36l.44,5.56c-2.49-2.34-4.91-3.8-8.93-3.8-7.68,0-15.07,7.17-15.07,19m-27.8-3.73c.73-4.83,3.65-7.1,7-7.1,4.32,0,6.07,2.93,6.07,7.1Zm-10.32,3.73c0,12,8,19,18.36,19a23.75,23.75,0,0,0,12.88-4.1l-3.58-6.51a14.62,14.62,0,0,1-7.83,2.41c-4.83,0-8.49-2.41-9.44-7.9h21.73a21.25,21.25,0,0,0,.44-4.54c0-9.87-5.12-17.41-15.44-17.41-8.71,0-17.12,7.24-17.12,19m-33.51,14a23.44,23.44,0,0,0,13.9,5.05c9.73,0,14.93-5.13,14.93-11.71s-5.2-9.22-9.81-10.9c-3.73-1.39-7.09-2.27-7.09-4.61,0-1.83,1.31-2.86,4.09-2.86,2.57,0,5,1.18,7.69,3.08L783,284.8a20.91,20.91,0,0,0-12.81-4.61c-8.41,0-13.9,4.61-13.9,11.34,0,6,5.2,9,9.59,10.68,3.73,1.47,7.38,2.56,7.38,5,0,1.9-1.39,3.07-4.6,3.07s-6.08-1.32-9.37-3.8Zm-40.6-14c0,11.86,5.85,19,14.85,19,3.51,0,7.09-1.91,9.66-4.47h.29l.73,3.59h8.78V281.07h-8.41l-.88,3.58h-.29c-2.86-3.07-5.78-4.46-9.44-4.46-7.61,0-15.29,7.17-15.29,19m11-.14c0-6.88,3.08-10.1,6.52-10.1a8.56,8.56,0,0,1,6,2.34v14.85c-1.75,2.42-3.58,3.3-5.92,3.3-4.17,0-6.59-3.22-6.59-10.39M683.16,309V296.51h6c5.93,0,8.93,1.82,8.93,6S695,309,689.16,309Zm0-20.12V278h5.12c5,0,7.46,1.46,7.46,5s-2.34,5.86-7.6,5.86Zm-10.83,28.46H690c10.39,0,18.58-4.32,18.58-14.05,0-6.37-3.58-9.95-10.39-11.19v-.3a10.47,10.47,0,0,0,8-10.31c0-9.15-7.68-11.86-17.63-11.86H672.33ZM626.6,295.48c.74-4.83,3.66-7.1,7-7.1,4.31,0,6.07,2.93,6.07,7.1Zm-10.31,3.73c0,12,8,19,18.36,19a23.75,23.75,0,0,0,12.88-4.1l-3.59-6.51a14.59,14.59,0,0,1-7.82,2.41c-4.83,0-8.49-2.41-9.44-7.9h21.73a21.25,21.25,0,0,0,.44-4.54c0-9.87-5.13-17.41-15.44-17.41-8.71,0-17.12,7.24-17.12,19m-32.12,0c0,12.07,7.83,19,17.93,19a18.85,18.85,0,0,0,12.07-4.54l-4.32-6.81a10.43,10.43,0,0,1-6.51,2.64c-4.68,0-8.12-4-8.12-10.32s3.29-10.31,8.49-10.31a7.74,7.74,0,0,1,5,2.12l4.9-6.66a14.66,14.66,0,0,0-10.61-4.17c-10,0-18.88,6.95-18.88,19M566.1,317.36h10.76V281.07H566.1Zm5.34-41.63c3.66,0,6.22-2.34,6.22-5.64s-2.56-5.56-6.22-5.56-6.22,2.27-6.22,5.56,2.64,5.64,6.22,5.64m-31.9,28.46c0,8.41,3.52,14.05,12.52,14.05a26.22,26.22,0,0,0,8-1.32l-1.68-7.83a10.18,10.18,0,0,1-3.44.73c-2.85,0-4.68-1.68-4.68-5.78V289.48H559v-8.41H550.3v-9.66h-8.93l-1.24,9.66-5.56.44v8h5Zm-37.75-5c0,12.07,7.83,19,17.93,19a18.85,18.85,0,0,0,12.07-4.54l-4.32-6.81a10.46,10.46,0,0,1-6.51,2.64c-4.68,0-8.12-4-8.12-10.32s3.29-10.31,8.49-10.31a7.7,7.7,0,0,1,5,2.12l4.91-6.66a14.66,14.66,0,0,0-10.61-4.17c-10,0-18.88,6.95-18.88,19m-41.7,0c0,11.86,5.85,19,14.85,19,3.51,0,7.1-1.91,9.66-4.47h.29l.73,3.59h8.78V281.07H486l-.88,3.58h-.29c-2.86-3.07-5.78-4.46-9.44-4.46-7.61,0-15.29,7.17-15.29,19m11.05-.14c0-6.88,3.07-10.1,6.51-10.1a8.6,8.6,0,0,1,6,2.34v14.85c-1.76,2.42-3.59,3.3-5.93,3.3-4.17,0-6.58-3.22-6.58-10.39M433.6,317.36h10.76V296.29c1.9-4.91,5.27-6.66,8-6.66a13.7,13.7,0,0,1,3.95.58l1.76-9.29a10.41,10.41,0,0,0-4.32-.73c-3.73,0-7.68,2.34-10.31,7.24h-.3l-.73-6.36H433.6ZM401,292.63V278.21h5.93c5.71,0,8.78,1.83,8.78,6.81s-2.86,7.61-8.78,7.61Zm-10.83,24.73H401V301.19h6.59c10.09,0,18.65-5,18.65-16.17,0-11.56-8.26-15.37-18.65-15.37H390.14Z" transform="translate(0)" fill="#004380"/><g clip-path="url(#b)"><path d="M110.15,214.48c0-11.7-5.39-18.22-16.31-18.22H88.6v36.86h5.24c10.92,0,16.31-6.88,16.31-18.64m40.55-7.87c0-4.82-3-6.59-8.51-6.59h-5.74v14h5.74c5.74,0,8.51-2.55,8.51-7.37m41.54-1.91c0-3.48-2.41-4.9-7.23-4.9h-5v10.57h4.82c5.1,0,7.37-2.2,7.37-5.67m2.27,18.85c0-4-2.91-5.81-8.65-5.81h-5.81v12.12h5.81c5.67,0,8.65-2.13,8.65-6.31m42.82-17.44c0-4.53-3-6.09-8.44-6.09h-5.32v13h5.32c5.46,0,8.44-2.34,8.44-6.88m56.28,31.83h-10.7l-12.05-23-4.54-10.06H266c.5,5.1,1.35,11.27,1.35,16.72v16.38h-10V191.72h10.7l12.05,23,4.61,10.21H285c-.49-4.89-1.34-11.41-1.34-16.87V191.72h9.92Zm-54.23-18.5,10.42,18.5H238.11l-8.87-16.66h-5.67v16.66H213.08V191.72h16.66c9.78,0,17.87,3.41,17.87,14.39,0,6.81-3.34,11.13-8.23,13.33m-44.73-6.24v.29c6.59,1.2,10.07,4.67,10.07,10.84,0,9.43-7.94,13.61-18,13.61H169.55V191.72h15.81c9.64,0,17.09,2.62,17.09,11.49a10.14,10.14,0,0,1-7.8,10m-33.74-6.59c0,10.85-8.3,15.67-18.08,15.67h-6.38v15.66H126V191.72h16.87c10.07,0,18.08,3.69,18.08,14.89m-44.66,7.87c0,14.81-7.66,23.46-21.7,23.46H82.64v-46.5H94.27c14.32,0,22,8.29,22,23m-67-11.91c0,4.46,4.12,6.16,7.73,7.72l6.66,2.84c5.39,2.34,9.57,5.53,9.57,12.41,0,7.37-6.09,13.25-15.87,13.25a22.36,22.36,0,0,1-16.24-6.88l3.55-4.11a18.06,18.06,0,0,0,12.83,5.82c6.09,0,9.71-3.05,9.71-7.59,0-4.75-3.4-6.24-7.8-8.22l-6.66-2.91c-4.33-1.84-9.43-5.17-9.43-12,0-7.09,6.24-12.33,14.67-12.33a19,19,0,0,1,13.69,5.74l-3.12,3.83A15,15,0,0,0,58,195.76c-5.24,0-8.72,2.63-8.72,6.81m285.46,57.95c0-92.63-74.93-167.71-167.35-167.71S0,167.89,0,260.52a167.92,167.92,0,0,0,7,48.05H99v4.15c12.31-.34,24.28-.71,27.44-.88,6.78-.35,13.83-.35,19.88,3.18,6.32,3.68,12.33,7.89,18.71,11.49,1.92,1.08,3.89,2.07,5.88,3a17.25,17.25,0,0,1-2.9-6.2c-4.33-18.79,25.27-41.67,66.13-51.1s77.49-1.85,81.83,16.94-25.27,41.67-66.12,51.1a147,147,0,0,1-40.09,3.86,149.82,149.82,0,0,1-26.53-1.25c-11.08-1.59-21.71-4.82-31.3-10.7-5.28-3.23-10.94-6-17.11-7-6.81-1.07-13.79.13-20.53,1.18L99,327.75v4.85H16.22a167.33,167.33,0,0,0,151.14,95.62c92.42,0,167.35-75.08,167.35-167.7M174,320.86c3.81,16.52,37.55,22.84,75.34,14.11s65.35-29.19,61.53-45.71-37.54-22.84-75.34-14.12-65.35,29.2-61.53,45.72" transform="translate(0)" fill="#004380"/></g></svg>