<svg xmlns="http://www.w3.org/2000/svg" xmlns:xlink="http://www.w3.org/1999/xlink" width="447.82" height="118.24" viewBox="0 0 1269.42 335.17"><defs><clipPath id="a2" transform="translate(-20.87 -16.23)"><rect width="376.9" height="353.72" /></clipPath></defs><path style="fill: var(--primaryColor);" d="M1164.46,247.74c-4.25,0-7-3.41-7-10,0-6.93,3.14-10.17,6.65-10.17a9.39,9.39,0,0,1,6.28,2.22v14.41c-1.85,2.78-3.51,3.51-5.91,3.51m-15.15,15.9L1144.13,274a35.76,35.76,0,0,0,17.56,5.17c15.7,0,24.57-6.47,24.57-18.66V215.77h-12.75l-1.1,4.25H1172a14.12,14.12,0,0,0-11.46-5.35c-9.43,0-19.22,9.24-19.22,23.28,0,12.94,7.39,22.55,18.85,22.55a15.78,15.78,0,0,0,10.53-4.07l-.37,4.62c-.55,3.23-2.58,5.73-8.68,5.73a28,28,0,0,1-12.38-3.14M1089.06,262H1105v-30.3c2.41-2.22,4.07-3.51,7-3.51,3.14,0,4.62,1.47,4.62,7.39V262h15.89V233.51c0-11.45-4.25-18.84-14.42-18.84-6.28,0-10.9,3.14-14.59,6.65h-.37l-1.11-5.55h-12.94Zm-26.61,0h15.89v-46.2h-15.89Zm8-51.92c5.17,0,8.87-3.33,8.87-8s-3.7-7.95-8.87-7.95-8.87,3.33-8.87,7.95,3.69,8,8.87,8m-42.88,34.18c0,11.28,5,18.85,17,18.85a34.88,34.88,0,0,0,10.91-1.66L1053,250a13.3,13.3,0,0,1-4.07.74c-3,0-5.54-1.66-5.54-6.74v-15.8H1054V215.77h-10.53v-12h-13.13l-1.84,12-7,.56v11.83h6.1Zm-37,0c0,11.28,5,18.85,17,18.85a34.88,34.88,0,0,0,10.91-1.66l-2.4-11.46a13.3,13.3,0,0,1-4.07.74c-3,0-5.54-1.66-5.54-6.74v-15.8H1017V215.77h-10.53v-12H993.34l-1.85,12-7,.56v11.83h6.1Zm-36-10.53c.92-5.08,3.88-7,7.39-7,4.8,0,6.28,3.14,6.28,7Zm-15.16,5.17c0,15.34,10.35,24.21,23.84,24.21A31.13,31.13,0,0,0,980,257.72l-5.17-9.42a19,19,0,0,1-9.43,2.77c-5.17,0-9.24-1.85-10.72-7.76h26.34a29.36,29.36,0,0,0,.64-6.28c0-12.39-6.47-22.36-20.14-22.36-11.27,0-22.18,9.24-22.18,24.2m-52.11,15.62A34.78,34.78,0,0,0,910,263.08c15,0,23.47-9,23.47-19.22,0-8.31-4.25-13.49-11.73-16.44l-7.3-2.87c-5.46-2.12-8.87-3.14-8.87-6,0-2.68,2.4-4.07,6.28-4.07,4.43,0,7.95,1.48,12,4.34l7.95-10a28.88,28.88,0,0,0-20-8c-13.12,0-22.36,8.4-22.36,18.66,0,8.69,5.63,14.14,12.1,16.72l7.49,3.15c5.08,2,8.13,2.95,8.13,5.82,0,2.68-2,4.25-6.84,4.25-4.43,0-9.79-2.4-14-5.82Zm-44.53-8.78c0,10.35,3.51,17.37,14.23,17.37a19.64,19.64,0,0,0,7.76-1.29l-1.85-11.64a5.84,5.84,0,0,1-1.66.18c-1.11,0-2.59-.92-2.59-4.06V197.66H842.73Zm-55.63-6.84c0,15,7.4,24.21,18.85,24.21,4.07,0,8.5-2.21,11.65-5.36H818l1.1,4.25H832v-46.2H819.63l-1.29,4.62H818c-3.52-4.06-7.21-5.72-11.65-5.72-9.42,0-19.22,9.05-19.22,24.2m16.27-.18c0-8.13,3.14-11.09,6.46-11.09a9.4,9.4,0,0,1,6.29,2.22v17a6.34,6.34,0,0,1-5.92,3.33c-4.25,0-6.83-3.14-6.83-11.46m-48.24,5.54c0,11.28,5,18.85,17,18.85a34.86,34.86,0,0,0,10.9-1.66L780.64,250a13.3,13.3,0,0,1-4.07.74c-3,0-5.54-1.66-5.54-6.74v-15.8h10.53V215.77H771v-12H757.91l-1.85,12-7,.56v11.83h6.09ZM699.33,262h15.89v-30.3c2.4-2.22,4.07-3.51,7-3.51,3.15,0,4.62,1.47,4.62,7.39V262h15.9V233.51c0-11.45-4.25-18.84-14.42-18.84-6.28,0-10.9,3.14-14.6,6.65h-.37l-1.11-5.55H699.33ZM663.48,233.7c.92-5.08,3.88-7,7.39-7,4.8,0,6.28,3.14,6.28,7Zm-15.16,5.17c0,15.34,10.35,24.21,23.84,24.21A31.13,31.13,0,0,0,689,257.72l-5.17-9.42a19,19,0,0,1-9.43,2.77c-5.17,0-9.24-1.85-10.72-7.76H690a29.36,29.36,0,0,0,.64-6.28c0-12.39-6.46-22.36-20.14-22.36-11.27,0-22.18,9.24-22.18,24.2m-39.73,10.35V214.67h.93c8.68,0,15.52,3,15.52,17s-6.84,17.55-15.52,17.55ZM592.7,262h18.66c17.38,0,29.94-9.05,29.94-30.3s-12.56-29.76-30.86-29.76H592.7Zm-76.32-23.1c0,15,7.39,24.21,18.85,24.21,4.06,0,8.5-2.21,11.64-5.36h.37l1.11,4.25h12.93v-46.2H548.9l-1.29,4.62h-.37c-3.51-4.06-7.21-5.72-11.64-5.72-9.43,0-19.22,9.05-19.22,24.2m16.26-.18c0-8.13,3.14-11.09,6.47-11.09a9.39,9.39,0,0,1,6.28,2.22v17a6.32,6.32,0,0,1-5.91,3.33c-4.25,0-6.84-3.14-6.84-11.46M445.24,262h15.89v-30.3c2.4-2.22,4.06-3.51,7-3.51,3.14,0,4.62,1.47,4.62,7.39V262h15.89V233.51c0-11.45-4.25-18.84-14.41-18.84-6.28,0-10.9,3.14-14.6,6.65h-.37l-1.11-5.55H445.24Zm-26.62,0h15.9v-46.2h-15.9Zm7.95-51.92c5.17,0,8.87-3.33,8.87-8s-3.7-7.95-8.87-7.95-8.87,3.33-8.87,7.95,3.7,8,8.87,8" transform="translate(-20.87 -16.23)" /><path style="fill: var(--primaryColor);" d="M1246.86,168.71h15.89V138.4c2.4-2.21,4.07-3.51,7-3.51,3.14,0,4.62,1.48,4.62,7.39v26.43h15.9V140.25c0-11.46-4.25-18.85-14.42-18.85-6.28,0-10.72,3.14-13.86,5.92l.74-7.95v-15h-15.89Zm-46-23.1c0,15.34,10.17,24.21,23.29,24.21a24.17,24.17,0,0,0,15.52-5.73l-6.28-10c-2,1.48-4.44,3-7.39,3-5,0-8.87-4.44-8.87-11.46s3.51-11.46,9.42-11.46a8.2,8.2,0,0,1,5.36,2.22l7.21-9.79a19,19,0,0,0-13.49-5.18c-13.12,0-24.77,8.87-24.77,24.21m-35.29,23.1h15.89V143c2.22-5.73,6.28-7.76,9.61-7.76a21.75,21.75,0,0,1,5.17.74l2.59-13.67a13.6,13.6,0,0,0-5.73-.93c-4.53,0-9.7,2.77-13.12,9.06h-.37l-1.11-8h-12.93Zm-55.63-23.1c0,15,7.39,24.21,18.85,24.21,4.07,0,8.5-2.22,11.64-5.36h.37l1.11,4.25h12.94v-46.2h-12.38l-1.3,4.62h-.37c-3.51-4.07-7.2-5.73-11.64-5.73-9.42,0-19.22,9.06-19.22,24.21m16.26-.18c0-8.14,3.15-11.09,6.47-11.09a9.35,9.35,0,0,1,6.29,2.22v17a6.35,6.35,0,0,1-5.92,3.32c-4.25,0-6.84-3.14-6.84-11.45m-50.07-5c.92-5.09,3.88-7,7.39-7,4.81,0,6.28,3.15,6.28,7ZM1061,145.61c0,15.34,10.35,24.21,23.84,24.21a31.13,31.13,0,0,0,16.82-5.36l-5.17-9.42a19.08,19.08,0,0,1-9.43,2.77c-5.17,0-9.24-1.85-10.72-7.76h26.34a29.47,29.47,0,0,0,.64-6.29c0-12.38-6.46-22.36-20.14-22.36-11.27,0-22.18,9.24-22.18,24.21m-43.05,17.74a30.8,30.8,0,0,0,17.92,6.47c12.94,0,19.78-6.65,19.78-15.34,0-8.32-6.29-11.83-11.83-13.86-4.62-1.66-8.69-2.59-8.69-5,0-1.85,1.39-2.59,4.07-2.59,2.86,0,6.1,1.48,9.42,3.88l7-9.42c-4.07-3-9.43-6.1-17-6.1-10.9,0-18.29,5.92-18.29,15,0,7.58,6.28,11.55,11.64,13.68,4.62,1.84,8.87,2.95,8.87,5.35,0,1.85-1.29,2.78-4.62,2.78s-7-1.48-11.27-4.62Zm-32.16-22.91c.93-5.09,3.88-7,7.39-7,4.81,0,6.29,3.15,6.29,7Zm-15.15,5.17c0,15.34,10.35,24.21,23.84,24.21a31.13,31.13,0,0,0,16.81-5.36l-5.17-9.42a19,19,0,0,1-9.43,2.77c-5.17,0-9.24-1.85-10.71-7.76h26.33a28.67,28.67,0,0,0,.65-6.29c0-12.38-6.47-22.36-20.15-22.36-11.27,0-22.17,9.24-22.17,24.21m-3.51,23.1-13-23.28c5.82-3.15,9.7-8.78,9.7-17.38,0-15-11.09-19.4-24-19.4H917v60.06h15.89V148.57H939l10.35,20.14Zm-34.19-47.49h5.73c6.28,0,9.61,1.66,9.61,6.83S944.9,136,938.62,136h-5.73Zm-90.36,47.49h15.89V138.4c2.4-2.21,4.07-3.51,7-3.51,3.14,0,4.62,1.48,4.62,7.39v26.43H886V140.25c0-11.46-4.25-18.85-14.41-18.85-6.28,0-10.9,3.14-14.6,6.65h-.37l-1.11-5.54H842.53Zm-37.89-23.1c0-7,1.85-11.46,6.66-11.46s6.65,4.44,6.65,11.46-1.85,11.46-6.65,11.46-6.66-4.44-6.66-11.46m-16.26,0c0,15.34,11.09,24.21,22.92,24.21s22.91-8.87,22.91-24.21S823.12,121.4,811.3,121.4s-22.92,8.87-22.92,24.21m-24.21,23.1h15.9v-46.2h-15.9Zm8-51.93c5.17,0,8.87-3.32,8.87-7.94s-3.7-8-8.87-8-8.87,3.33-8.87,8,3.69,7.94,8.87,7.94M729.25,151c0,11.27,5,18.85,17,18.85a35.16,35.16,0,0,0,10.9-1.66l-2.4-11.46a13.3,13.3,0,0,1-4.07.74c-2.95,0-5.54-1.67-5.54-6.75v-15.8h10.53V122.51H745.14v-12H732l-1.85,12-7,.55v11.83h6.1Zm-57.66-5.36c0,15,7.39,24.21,18.85,24.21,4.06,0,8.5-2.22,11.64-5.36h.37l1.11,4.25h12.93v-46.2H704.11l-1.29,4.62h-.37c-3.51-4.07-7.21-5.73-11.64-5.73-9.43,0-19.22,9.06-19.22,24.21m16.26-.18c0-8.14,3.14-11.09,6.47-11.09a9.34,9.34,0,0,1,6.28,2.22v17a6.33,6.33,0,0,1-5.91,3.32c-4.25,0-6.84-3.14-6.84-11.45m-41.76,7c0,10.35,3.51,17.37,14.23,17.37a19.86,19.86,0,0,0,7.76-1.29l-1.85-11.65a5.55,5.55,0,0,1-1.66.19c-1.11,0-2.59-.93-2.59-4.07V104.4H646.09Zm-45.46,10.9a30.81,30.81,0,0,0,17.93,6.47c12.93,0,19.77-6.65,19.77-15.34,0-8.32-6.28-11.83-11.83-13.86-4.62-1.66-8.68-2.59-8.68-5,0-1.85,1.38-2.59,4.06-2.59,2.87,0,6.1,1.48,9.43,3.88l7-9.42c-4.07-3-9.43-6.1-17-6.1-10.91,0-18.3,5.92-18.3,15,0,7.58,6.29,11.55,11.64,13.68,4.62,1.84,8.87,2.95,8.87,5.35,0,1.85-1.29,2.78-4.62,2.78s-7-1.48-11.27-4.62Zm-50.08,5.36h15.89V138.4c2.4-2.21,4.07-3.51,7-3.51,3.15,0,4.62,1.48,4.62,7.39v26.43H594V140.25c0-11.46-4.25-18.85-14.42-18.85-6.28,0-10.9,3.14-14.6,6.65h-.37l-1.1-5.54H550.55Zm-55.62-23.1c0,15,7.39,24.21,18.84,24.21,4.07,0,8.51-2.22,11.65-5.36h.37l1.11,4.25h12.93v-46.2H527.45l-1.29,4.62h-.37c-3.51-4.07-7.21-5.73-11.65-5.73-9.42,0-19.21,9.06-19.21,24.21m16.26-.18c0-8.14,3.14-11.09,6.47-11.09a9.34,9.34,0,0,1,6.28,2.22v17a6.34,6.34,0,0,1-5.92,3.32c-4.25,0-6.83-3.14-6.83-11.45m-51.93,23.28h15.89V143c2.22-5.73,6.28-7.76,9.61-7.76a21.91,21.91,0,0,1,5.18.74l2.58-13.67a13.6,13.6,0,0,0-5.73-.93c-4.52,0-9.7,2.77-13.12,9.06h-.37l-1.11-8H459.26Zm-35.67,0h15.9V122h15.89V108.65H407.7V122h15.89Z" transform="translate(-20.87 -16.23)" /><g clip-path="url(#a2)"><path style="fill: var(--primaryColor);" d="M238.31,241.86h-2.08v30.71h2.08c8.16,0,13.72-4,13.72-15.58s-5.56-15.13-13.72-15.13m-47.11,21c0,7.27,2.45,10.53,6.68,10.53,2.37,0,4.22-.89,6-3.34V255a8.69,8.69,0,0,0-6.08-2.37c-3.49,0-6.6,3.26-6.6,10.24m-58-21.15h-5.56v13.58h5.56c5.72,0,8.83-2.45,8.83-7.2s-3.11-6.38-8.83-6.38m149,4.23c0,3,3.19,4,7.41,5.71l6.16,2.53c5.86,2.37,9.57,6.3,9.57,13.13,0,8-6.67,15-18.17,15a26.81,26.81,0,0,1-18-7l6.31-7.49c3.41,3,7.86,5,11.87,5,4.52,0,6.75-1.78,6.75-4.67s-2.75-4-7-5.79l-6.24-2.67c-5-2-9.79-6.16-9.79-13.21,0-8,7.2-14.39,17.21-14.39a22.4,22.4,0,0,1,15.58,6.38l-5.49,6.9c-3.19-2.45-6.23-3.86-10.09-3.86-3.71,0-6.15,1.64-6.15,4.38m3.56-34.55H91.18l97.3-153.85ZM71.61,233h37.54v9.2H95.87V281.4H85V242.23H71.61Zm45,0h17.43c10.24,0,18.7,3.56,18.7,15.06,0,7.12-3.49,11.65-8.61,14l10.91,19.36H142.83L133.56,264h-5.94V281.4h-11Zm43.92.45c0-3.34,2.67-5.64,6.3-5.64s6.31,2.3,6.31,5.64-2.6,5.71-6.31,5.71-6.3-2.38-6.3-5.71m.89,11.12h10.9v36.8h-10.9ZM180,263c0-12,7.79-19.29,15.5-19.29,3.71,0,6.68,1.41,9.57,4.53h.3l.89-3.64h8.53v36.8h-8.9l-.74-3.63h-.3c-2.6,2.59-6.23,4.52-9.79,4.52C185.93,282.29,180,275,180,263m45.25-30H238.9c14.84,0,24.34,7.35,24.34,24s-9.5,24.41-23.67,24.41H225.25ZM356,183.81A167.58,167.58,0,1,0,188.45,351.4,167.58,167.58,0,0,0,356,183.81" transform="translate(-20.87 -16.23)" /></g></svg>