<svg xmlns="http://www.w3.org/2000/svg" width="300" height="300" viewBox="0 0 300 300"><path style="fill: var(--primaryColor);" d="M0,0V300H300V0ZM285.49,150c0,75-60.67,135.73-135.47,135.74h0A135.48,135.48,0,0,1,27.64,208.36h67v-3.93L107,203.31c5.46-.86,11.11-1.83,16.62-.95,5,.79,9.58,3,13.86,5.66a65.72,65.72,0,0,0,25.34,8.65,121.43,121.43,0,0,0,21.48,1,118.71,118.71,0,0,0,32.45-3.13c33.08-7.63,57.05-26.16,53.54-41.37S237.12,151.84,204,159.47s-57,26.16-53.53,41.38a14,14,0,0,0,2.34,5c-1.61-.77-3.21-1.57-4.76-2.44-5.17-2.91-10-6.32-15.15-9.31-4.9-2.85-10.6-2.85-16.09-2.57-2.56.14-12.25.44-22.21.71V188.9H20.18A136,136,0,0,1,14.51,150C14.51,75,75.17,14.22,150,14.22S285.47,75,285.49,150Zm-80.3,11.8c30.61-7.06,57.92-2,61,11.43s-19.21,29.95-49.81,37-57.91,1.95-61-11.43S174.59,168.91,205.19,161.84Z"/></svg>