<svg xmlns="http://www.w3.org/2000/svg" width="300" height="300" viewBox="0 0 300 300"><path d="M0,0V300H300V0ZM231.63,240c-11.39,13.3-24.32,25.11-39.67,33.85-16.17,9.2-27.54,7.54-40.24-6.14-6.62-7.13-12.56-14.89-18.72-22.44-7.7-9.42-16.94-13.44-29-9.26A119.74,119.74,0,0,1,88.6,239.9,40.28,40.28,0,0,1,44,217.5c-7.63-16.61-11.61-34-13.94-51.57a227.08,227.08,0,0,1,.49-66.06c2.42-14.9,6.49-29.3,13.92-43a88.26,88.26,0,0,1,18.45-24c15.69-14.07,33-16.31,51.69-6.53,15.33,8,27.9,19.66,39.35,32.3,8.19,9,17.54,12.52,29.3,10.72,3.2-.5,6.48-.49,9.68-1,48.48-7.61,74.46,17.94,78.77,66.43C275.33,175.93,257.5,209.79,231.63,240Z"/></svg>