<svg xmlns="http://www.w3.org/2000/svg" width="101.97mm" height="101.81mm" viewBox="0 0 289.06 288.58"><path d="M32.09,155.45H53.31v5.29h-15v9H51.05v5.29H38.36v10.43H53.85v5.29H32.09Z"/><path d="M70.06,163.61c3,0,4.91,1.13,7,2.91l-.21-4.27v-9.61H83v38.13H77.89l-.44-2.86h-.21a11.09,11.09,0,0,1-7.51,3.51c-6.64,0-10.91-5.13-10.91-13.88S64.28,163.61,70.06,163.61Zm1.18,22.68c2.05,0,3.78-.92,5.57-3V171a7.91,7.91,0,0,0-5.41-2.21c-3.4,0-6.15,3.18-6.15,8.74C65.25,183.21,67.41,186.29,71.24,186.29Z"/><path d="M90.63,164.25h6.21v15.83c0,4.37,1.24,6,4.1,6,2.33,0,3.89-1.08,5.89-3.67V164.25H113v26.52H108l-.48-3.89h-.17c-2.32,2.75-4.91,4.54-8.53,4.54-5.67,0-8.15-3.84-8.15-10.53Z"/><path d="M132.48,163.61a11,11,0,0,1,7.78,3.07l-3,3.95a6.6,6.6,0,0,0-4.49-1.95c-4.26,0-7.23,3.51-7.23,8.86s2.91,8.8,7.07,8.8a8.77,8.77,0,0,0,5.46-2.27l2.59,3.94a13.27,13.27,0,0,1-8.7,3.41c-7.23,0-12.8-5.08-12.8-13.88S125.4,163.61,132.48,163.61Z"/><path d="M154.35,163.61a9.55,9.55,0,0,1,7.18,3.23h.16l.49-2.59h5v26.52H162l-.43-2.86h-.22a11.07,11.07,0,0,1-7.51,3.51c-6.64,0-10.9-5.13-10.9-13.88S148.52,163.61,154.35,163.61Zm1,22.68c2.05,0,3.78-.92,5.56-3V171a7.91,7.91,0,0,0-5.4-2.21c-3.4,0-6.16,3.18-6.16,8.74C149.38,183.21,151.54,186.29,155.38,186.29Z"/><path d="M176,169.17h-3.78v-4.65l4.1-.27L177,157h5.18v7.23H189v4.92h-6.75V181.8c0,3.14,1.19,4.65,3.73,4.65a7.43,7.43,0,0,0,2.75-.6l1.08,4.59a16.75,16.75,0,0,1-5.4,1c-6.15,0-8.42-3.89-8.42-9.62Z"/><path d="M193.82,156.1a3.85,3.85,0,1,1,3.84,3.51A3.56,3.56,0,0,1,193.82,156.1Zm.7,8.15h6.21v26.52h-6.21Z"/><path d="M219.53,163.61c6.64,0,12.63,5.07,12.63,13.93s-6,13.88-12.63,13.88-12.59-5.08-12.59-13.88S212.94,163.61,219.53,163.61Zm0,22.73c3.88,0,6.26-3.51,6.26-8.8s-2.38-8.86-6.26-8.86-6.21,3.51-6.21,8.86S215.64,186.34,219.53,186.34Z"/><path d="M238.32,164.25h5.13l.43,3.57h.22c2.37-2.32,5.07-4.21,8.69-4.21,5.67,0,8.15,3.83,8.15,10.53v16.63h-6.21V175c0-4.38-1.24-6-4.15-6-2.33,0-3.84,1.13-6.05,3.3v18.52h-6.21Z"/><path d="M47.12,279.13a14.05,14.05,0,0,0,9.24,4c3.94,0,6.15-1.78,6.15-4.54s-2.27-3.83-5.51-5.18l-4.8-2.11c-3.51-1.45-7.13-4.21-7.13-9.39,0-5.62,5-9.94,11.83-9.94a15.62,15.62,0,0,1,10.9,4.48l-3.24,4a11.38,11.38,0,0,0-7.66-3c-3.35,0-5.51,1.56-5.51,4.15,0,2.76,2.7,3.78,5.61,5l4.75,2c4.22,1.78,7.13,4.43,7.13,9.56,0,5.72-4.75,10.47-12.69,10.47A18.19,18.19,0,0,1,43.5,283.4Z"/><path d="M86.27,260.77a11,11,0,0,1,7.78,3.08l-3,3.94a6.63,6.63,0,0,0-4.49-1.94c-4.26,0-7.23,3.51-7.23,8.86s2.91,8.8,7.07,8.8a8.77,8.77,0,0,0,5.46-2.27l2.59,3.94a13.26,13.26,0,0,1-8.7,3.4c-7.23,0-12.79-5.07-12.79-13.87S79.2,260.77,86.27,260.77Z"/><path d="M109.22,260.77c6.64,0,12.64,5.08,12.64,13.94s-6,13.87-12.64,13.87-12.58-5.07-12.58-13.87S102.63,260.77,109.22,260.77Zm0,22.74c3.89,0,6.26-3.51,6.26-8.8s-2.37-8.86-6.26-8.86-6.21,3.51-6.21,8.86S105.33,283.51,109.22,283.51Z"/><path d="M128.93,266.34h-3.78v-4.65l4.1-.27.76-7.23h5.18v7.23h6.75v4.92h-6.75V279c0,3.13,1.19,4.65,3.73,4.65a7.43,7.43,0,0,0,2.75-.6l1.08,4.59a16.77,16.77,0,0,1-5.4,1c-6.15,0-8.42-3.88-8.42-9.61Z"/><path d="M147.51,249.81h6.21v31.65c0,1.51.7,2.05,1.35,2.05a3.66,3.66,0,0,0,1-.11l.81,4.64a8.41,8.41,0,0,1-3.3.54c-4.42,0-6-2.86-6-7.45Z"/><path d="M171.91,260.77A9.6,9.6,0,0,1,179.1,264h.16l.48-2.59h5v26.52h-5.13l-.43-2.87h-.22a11,11,0,0,1-7.5,3.51c-6.64,0-10.91-5.13-10.91-13.87S166.08,260.77,171.91,260.77Zm1,22.68c2.05,0,3.78-.91,5.56-3V268.12a7.91,7.91,0,0,0-5.4-2.22c-3.4,0-6.15,3.19-6.15,8.75C167,280.38,169.11,283.45,172.94,283.45Z"/><path d="M192.6,261.42h5.13l.43,3.57h.21c2.38-2.33,5.08-4.22,8.7-4.22,5.67,0,8.15,3.84,8.15,10.53v16.64H209V272.11c0-4.37-1.24-6-4.16-6-2.32,0-3.83,1.13-6,3.29v18.53H192.6Z"/><path d="M232.45,260.77c3,0,4.91,1.14,7,2.92l-.21-4.27v-9.61h6.21v38.13h-5.13l-.43-2.87h-.22a11,11,0,0,1-7.51,3.51c-6.64,0-10.9-5.13-10.9-13.87S226.67,260.77,232.45,260.77Zm1.19,22.68c2.05,0,3.78-.91,5.56-3V268.12a7.92,7.92,0,0,0-5.4-2.22c-3.4,0-6.16,3.19-6.16,8.75C227.64,280.38,229.8,283.45,233.64,283.45Z"/><path d="M237.69,33c-10.3-3-16.4-3.7-16.4-9.43,0-3.92,3.69-6.84,10-6.84,7.56,0,20.83,5.9,20.83,5.9L258.9,7a58.64,58.64,0,0,0-26.81-7c-20,0-32.79,10.89-32.79,25.25,0,12.45,8.14,18.06,25.55,22.66,9.79,2.58,15.76,4.6,15.76,11,0,4.71-4.45,8.19-10.17,8.19-12.85,0-26.67-7.82-26.67-7.82l-7.22,15.31s11.94,9.45,31,9.45c21.61,0,35.09-11.33,35.09-26.81C262.61,45.22,254.47,37.93,237.69,33Z"/><path d="M51.26,1.52c-9.71,0-19.64,0-19.64,0V81.68H52l-.1-47.62S67.83,61.58,82,81.68c13.76,0,17,0,17,0V1.54H79L79,43.3A470.89,470.89,0,0,0,51.26,1.52Z"/><path d="M164.62,81.53V47H134.36V81.53H114v-80h20.38V32h30.26V1.55H185v80Z"/><path d="M144.81,130.49c-6.62-11.88-29.22-31.55-69.35-25.09-15.24,1.33-21.58,2.28-29.66,1.66C13.85,104.61,8.29,87,8,86H0s4.39,34.31,39.34,40.11c8.57,1.42,26.41-.26,37.94-2.15,28.33-4.64,50-5.38,67.57,18.91,0,0,.23.27.43.27a.45.45,0,0,0,.45-.27S148,138.22,144.81,130.49Z"/><path d="M281.08,86c-.31,1-6.22,18.53-38.17,21-8.08.62-14.41-.33-29.66-1.66-39.79-6.4-56.63,13.21-61.51,23.88a22.33,22.33,0,0,0-1.44,13.67.45.45,0,0,0,.4.27c.2,0,.42-.27.42-.27,17.57-24.29,32-23.63,60.31-19,11.54,1.88,29.37,3.57,37.94,2.15,34.95-5.8,39.69-40,39.69-40Z"/><path d="M134.13,205.93a7.34,7.34,0,0,0-2.91-.64c-2.16,0-3.35,1.4-3.35,4.48v2.86h5.18v4.91h-5.18v21.61h-6.21V217.54h-3.57V212.9l3.57-.27v-2.75c0-5.51,2.54-9.51,8.8-9.51a13.34,13.34,0,0,1,4.86.92Z"/><path d="M148,212c6.64,0,12.64,5.08,12.64,13.94s-6,13.87-12.64,13.87-12.58-5.07-12.58-13.87S141.42,212,148,212Zm0,22.74c3.89,0,6.26-3.51,6.26-8.8s-2.37-8.86-6.26-8.86-6.21,3.51-6.21,8.86S144.12,234.72,148,234.72Z"/><path d="M166.8,212.63h5.13l.43,4.7h.22c1.89-3.46,4.7-5.35,7.51-5.35a6.83,6.83,0,0,1,3,.54l-1.08,5.4a8.69,8.69,0,0,0-2.76-.43c-2.1,0-4.64,1.46-6.26,5.46v16.2H166.8Z"/></svg>